<?xml version="1.0" ?><svg height="20px" version="1.1" viewBox="0 0 20 20" width="20px" xmlns="http://www.w3.org/2000/svg" xmlns:xlink="http://www.w3.org/1999/xlink"><title/><g fill="none" fill-rule="evenodd" id="Icons" stroke="none" stroke-linecap="round" stroke-linejoin="round" stroke-width="1"><g id="Group" stroke="#000000" stroke-width="2" transform="translate(-2.000000, -2.000000)"><g id="Shape" transform="translate(3.000000, 3.000000)"><path d="M2,5 L16,5 C17.1045695,5 18,5.8954305 18,7 L18,8 C18,9.1045695 17.1045695,10 16,10 L2,10 C0.8954305,10 0,9.1045695 0,8 L0,7 C0,5.8954305 0.8954305,5 2,5 Z"/><path d="M17,10.4007448 L17,17.250745 C17,17.6649586 16.6162441,18.000745 16.1428571,18.000745 L1.85714286,18.000745 C1.38375593,18.000745 1,17.6649586 1,17.250745 L1,10.4007448"/><line x1="9.003125" x2="9.003125" y1="5.90074483" y2="17.9007448"/><path d="M13.2426403,3.84008452 C12.1819809,4.90074483 9,4.90074483 9,4.90074483 C9,4.90074483 9,1.71876389 10.0606603,0.658104517 C10.9394861,-0.219721521 12.363409,-0.219316321 13.2417351,0.659009743 C14.1200612,1.53733581 14.1204664,2.96125871 13.2426403,3.84008452 L13.2426403,3.84008452 Z"/><path d="M4.75735969,3.84008452 C5.81801906,4.90074483 9,4.90074483 9,4.90074483 C9,4.90074483 9,1.71876389 7.93933969,0.658104517 C7.06051388,-0.219721521 5.63659098,-0.219316321 4.75826491,0.659009743 C3.87993885,1.53733581 3.87953365,2.96125871 4.75735969,3.84008452 L4.75735969,3.84008452 Z"/></g></g></g></svg>